<svg width="20" height="20" viewBox="0 0 20 20" fill="none" xmlns="http://www.w3.org/2000/svg">
<path d="M20 20H4.2588L0 15.6196V0H15L20 5.03V20Z" fill="#3751FF"/>
<path d="M15.3667 7.75193V7.30233H14.9211V6.85393H14.4751L14.4727 6.40753H14.0251V6.40513H14.0215V5.95913H13.5779V5.95553H13.1307V5.50593H12.6907V5.05513H12.2371V4.60553H4.18591V6.77913H5.08032V11.6971H4.18591V13.5963H4.63271V14.4951H5.52751V15.3943H14.9211V14.4951H15.3683V14.0455H15.8155V11.7975H15.3683V11.3479H14.9211V10.8991H15.3683V10.4495H15.8155V7.75193H15.3667Z" fill="white"/>
<path d="M14.4724 7.75187V7.30227H14.0248V6.85266H6.422V7.75187H7.31638V13.5967H6.422V14.4959H14.4724V14.0463H14.9196V11.7983H14.4724V11.3487H14.0248V10.8991H14.472V10.4495H14.9192V7.75187H14.4724Z" fill="#3751FF"/>
<path d="M13.1304 9.99994H12.6832V10.4495H9.10522V8.64954H12.6832V9.09913H13.1304V9.99834V9.99994Z" fill="white"/>
<path d="M13.1304 11.7985V12.6977H12.6832V13.1473H9.10522V11.3473H12.6832V11.7969L13.1304 11.7985Z" fill="white"/>
</svg>
